<svg width="24" height="24" viewBox="0 0 24 24" fill="none" xmlns="http://www.w3.org/2000/svg">
<g clip-path="url(#clip0_19116_434)">
<path d="M7.8 9.59985L6 14.3999V20.3999H7.8V19.1999H16.2V20.3999H18V14.3999L16.248 9.59985H7.8ZM9.3 17.0999C8.808 17.0999 8.4 16.6919 8.4 16.1999C8.4 15.7079 8.808 15.2999 9.3 15.2999C9.792 15.2999 10.2 15.7079 10.2 16.1999C10.2 16.6919 9.792 17.0999 9.3 17.0999ZM14.7 17.0999C14.208 17.0999 13.8 16.6919 13.8 16.1999C13.8 15.7079 14.208 15.2999 14.7 15.2999C15.192 15.2999 15.6 15.7079 15.6 16.1999C15.6 16.6919 15.192 17.0999 14.7 17.0999ZM8.376 13.1999L9.048 11.3999H14.988L15.648 13.1999H8.376Z" fill="#FAFAFA"/>
<path d="M11.2439 3.29995C10.8599 2.08795 9.7319 1.19995 8.3999 1.19995C6.7439 1.19995 5.3999 2.54395 5.3999 4.19995C5.3999 5.85595 6.7439 7.19995 8.3999 7.19995C9.7319 7.19995 10.8599 6.31195 11.2439 5.09995H14.9999V7.19995H16.7999V5.09995H17.9999V3.29995H11.2439ZM8.3999 5.39995C7.7519 5.39995 7.1999 4.84795 7.1999 4.19995C7.1999 3.55195 7.7519 2.99995 8.3999 2.99995C9.0479 2.99995 9.5999 3.55195 9.5999 4.19995C9.5999 4.84795 9.0479 5.39995 8.3999 5.39995Z" fill="#FAFAFA"/>
</g>
<defs>
<clipPath id="clip0_19116_434">
<rect width="24" height="24" fill="white"/>
</clipPath>
</defs>
</svg>
