<svg width="20" height="19" viewBox="0 0 20 19" fill="none" xmlns="http://www.w3.org/2000/svg">
<path d="M1.45862 2C1.24862 2 1.03862 2.08 0.868618 2.21C0.428618 2.55 0.348618 3.18 0.688618 3.61V3.62L5.99862 10.42V16.41L8.28862 18.71C8.67862 19.1 9.31862 19.1 9.70862 18.71C10.0986 18.32 10.0986 17.68 9.70862 17.29L7.99862 15.59V9.73L2.26862 2.39C2.07862 2.14 1.77862 2 1.45862 2ZM13.9986 9V16.88C14.0386 17.18 13.9386 17.5 13.7086 17.71C13.3186 18.1 12.6886 18.1 12.2986 17.71L10.2886 15.7C10.0586 15.47 9.95862 15.16 9.99862 14.87V9H9.96862L4.20862 1.62C3.86862 1.19 3.94862 0.56 4.37862 0.22C4.56862 0.08 4.77862 0 4.99862 0H18.9986C19.2186 0 19.4286 0.08 19.6186 0.22C20.0486 0.56 20.1286 1.19 19.7886 1.62L14.0286 9H13.9986Z" fill="#86D275"/>
</svg>
