<svg width="25" height="24" viewBox="0 0 25 24" fill="none" xmlns="http://www.w3.org/2000/svg">
<path d="M20.9167 11H4.91675V8H20.9167M20.9167 15H13.9167V13H20.9167M20.9167 19H13.9167V17H20.9167M11.9167 19H4.91675V13H11.9167M21.2467 4.67L19.5867 3L17.9167 4.67L16.2467 3L14.5867 4.67L12.9167 3L11.2467 4.67L9.58675 3L7.91675 4.67L6.24675 3L4.58675 4.67L2.91675 3V19C2.91675 19.5304 3.12746 20.0391 3.50253 20.4142C3.87761 20.7893 4.38632 21 4.91675 21H20.9167C21.4472 21 21.9559 20.7893 22.331 20.4142C22.706 20.0391 22.9167 19.5304 22.9167 19V3L21.2467 4.67Z" fill="#FAFAFA"/>
</svg>
